<svg id="Layer_1" data-name="Layer 1" xmlns="http://www.w3.org/2000/svg" viewBox="0 0 21.79 24.78"><defs><style>.cls-1{fill: ;}</style></defs><title>diagnostics</title><path class="cls-1" d="M1.73,14.86a.55.55,0,0,1,.43-.22H4.28a7.81,7.81,0,0,1,2-3.44c2.68-1.87,9.79-1.87,12.47,0a7.78,7.78,0,0,1,2,3.44h2.12a.55.55,0,0,1,.43.22.6.6,0,0,1,.11.49L23.07,17a.56.56,0,0,1-.55.47h-.63A4.17,4.17,0,0,1,22.8,20,4,4,0,0,1,21.63,23l0,0v2.25a.87.87,0,0,1-.84.89H18.82a.86.86,0,0,1-.84-.89v-.9H7v.9a.86.86,0,0,1-.83.89h-2a.87.87,0,0,1-.84-.89V23A4.1,4.1,0,0,1,2.2,20.12a4.17,4.17,0,0,1,.95-2.69H2.48A.57.57,0,0,1,1.93,17l-.31-1.61A.64.64,0,0,1,1.73,14.86Zm16.09-2.18c-2.14-1.49-8.5-1.49-10.63,0a7.44,7.44,0,0,0-1.44,2.88h13.5A7.61,7.61,0,0,0,17.82,12.68Zm2.5,7.58A1.65,1.65,0,1,0,18.67,22,1.7,1.7,0,0,0,20.32,20.26ZM6.31,22a1.75,1.75,0,0,0,0-3.49,1.75,1.75,0,0,0,0,3.49Z" transform="translate(-1.61 -1.36)"/><path d="M12.23,9.85a2.73,2.73,0,0,1-.88-.31.91.91,0,0,1-.44-.68A8.12,8.12,0,0,1,9.13,5.51a.54.54,0,0,1,.25-.62,3.11,3.11,0,0,1,.7-2.66.41.41,0,0,1,.16-.39l.6-.42a.29.29,0,0,1,.44.12l.29.59a.3.3,0,0,1-.17.43l-.68.21a.45.45,0,0,1-.48-.2,2.86,2.86,0,0,0-.53,2.27.52.52,0,0,1,.4.38A7.14,7.14,0,0,0,11.45,7.9a.81.81,0,0,1,.71,0,1.06,1.06,0,0,0,.44.13h0a1.08,1.08,0,0,0,.47-.15.82.82,0,0,1,.7-.06,7.26,7.26,0,0,0,1.3-2.65.55.55,0,0,1,.4-.38A2.79,2.79,0,0,0,15,2.57a.42.42,0,0,1-.47.2l-.68-.21a.3.3,0,0,1-.17-.43l.28-.59a.3.3,0,0,1,.44-.12l.61.42a.38.38,0,0,1,.15.39,3.1,3.1,0,0,1,.71,2.66.57.57,0,0,1,.25.62A8.28,8.28,0,0,1,14.36,8.8a.9.9,0,0,1-.43.71,3.36,3.36,0,0,1-.65.28" transform="translate(-1.61 -1.36)"/></svg>