<svg width="44" height="32" viewBox="0 0 44 32" fill="none" xmlns="http://www.w3.org/2000/svg">
<path d="M0.252823 10.0168C0.468002 9.74845 0.789085 9.59182 1.12594 9.59182H5.40814C6.46489 6.74256 7.8416 3.95089 9.40644 2.8971C14.8198 -0.743368 29.1783 -0.743368 34.5916 2.8971C36.1575 3.95204 37.5286 6.74717 38.591 9.59182H42.8732C43.2134 9.59182 43.5334 9.74845 43.7463 10.0168C43.9604 10.284 44.046 10.6375 43.9761 10.9773L43.3419 14.1191C43.2337 14.6546 42.7718 15.037 42.2389 15.037H40.9704C42.195 16.4812 42.7887 18.2997 42.7966 20.1193C42.8045 22.3674 41.9697 24.399 40.4431 25.8363C40.4262 25.8513 40.4093 25.8616 40.3936 25.8766V30.2726C40.3936 31.225 39.6365 32.0001 38.7037 32.0001H34.7538C33.821 32.0001 33.0639 31.225 33.0639 30.2726V28.5059H10.9364V30.2726C10.9364 31.225 10.1793 32.0001 9.24647 32.0001H5.29661C4.36604 32.0001 3.60671 31.225 3.60671 30.2726V25.963C1.98666 24.4462 1.21269 22.3594 1.20255 20.276C1.19579 18.3941 1.81654 16.5088 3.11326 15.0347H1.76022C1.22508 15.0347 0.763172 14.6523 0.657272 14.1156L0.0218735 10.975C-0.0434723 10.6375 0.0387688 10.2863 0.252823 10.0168ZM32.7361 5.78206C28.4212 2.87867 15.5791 2.87867 11.2665 5.78206C10.4283 6.34408 9.35012 8.61635 8.36209 11.3988H35.6382C34.6524 8.6175 33.5743 6.34638 32.7361 5.78206ZM37.79 20.5524C37.79 18.6751 36.3006 17.1549 34.4654 17.1549C32.6279 17.1549 31.1408 18.6751 31.1408 20.5524C31.1408 22.4296 32.6279 23.951 34.4654 23.951C36.3006 23.951 37.79 22.4296 37.79 20.5524ZM9.49094 23.951C11.3262 23.951 12.8155 22.4296 12.8155 20.5524C12.8155 18.6751 11.3262 17.1549 9.49094 17.1549C7.65345 17.1549 6.16634 18.6751 6.16634 20.5524C6.16634 22.4296 7.65571 23.951 9.49094 23.951Z" fill="#1E1B1B"/>
</svg>
