<svg width="25" height="28" viewBox="0 0 25 28" fill="none" xmlns="http://www.w3.org/2000/svg">
<mask id="mask0_482_1532" style="mask-type:alpha" maskUnits="userSpaceOnUse" x="0" y="0" width="25" height="28">
<path d="M20.5548 14.4818C20.5055 15.0402 20.198 15.5656 19.6835 15.8602C19.2563 16.1048 18.8161 16.2847 18.3664 16.4064C18.6198 17.2806 19.0853 18.5457 19.914 19.9007C20.7012 21.1883 20.7105 22.7423 19.9388 24.1645C18.8019 26.2606 16.2915 27.6691 13.691 27.6691C11.9051 27.6691 10.3173 26.8283 9.22054 25.3014C7.65296 23.1184 7.3056 19.8968 8.29192 16.6853C9.20615 13.7082 7.98343 12.12 7.17441 11.4373C6.51485 12.0871 5.62029 12.4878 4.63155 12.4878C2.60565 12.4878 0.962185 10.8082 0.962185 8.73616C0.962185 6.66411 2.60565 4.98501 4.63155 4.98501C6.65847 4.98501 8.30101 6.66459 8.30101 8.73616C8.30101 9.0279 8.26548 9.31025 8.20397 9.58283C9.73174 10.7252 11.4954 13.2966 10.2611 17.3169C9.48282 19.852 9.72163 22.4327 10.8852 24.0525C11.3785 24.74 12.2664 25.5593 13.6916 25.5593C15.5355 25.5593 17.3624 24.5648 18.134 23.1416C18.4186 22.6166 18.6543 21.8214 18.1635 21.0185C17.0674 19.2249 16.5188 17.5512 16.2587 16.5282C15.6495 16.4344 15.0547 16.2335 14.4825 15.9212C13.9725 15.6428 13.6596 15.1389 13.5907 14.5943C11.1663 12.3538 10.0469 8.31686 9.98252 8.0806C9.8518 7.59595 10.0752 7.0984 10.4917 6.87154C10.1569 3.84091 11.2541 2.31345 11.9162 1.69128C11.8657 1.40011 11.9797 1.08865 12.2299 0.921722L13.4465 0.108913C13.7642 -0.103252 14.1637 0.00382639 14.3379 0.349531L14.9176 1.49477C15.0922 1.84057 14.9383 2.20932 14.5735 2.31933L13.1981 2.7338C12.8494 2.83889 12.4316 2.66855 12.2341 2.35613C11.686 2.94644 10.8967 4.26069 11.1686 6.76778C11.5424 6.84052 11.8628 7.11889 11.9713 7.51913C12.3018 8.7317 13.2563 11.2363 14.6735 12.7382C15.1246 12.56 15.6432 12.5688 16.1032 12.8192C16.4028 12.9828 16.6957 13.0652 16.9964 13.0716H17.0584C17.3753 13.0647 17.6847 12.9734 18.0015 12.7922C18.4502 12.5349 18.9612 12.5123 19.4118 12.6748C20.7973 11.1668 21.7315 8.7152 22.0565 7.51932C22.1653 7.12012 22.4869 6.84109 22.8594 6.76844C23.1318 4.26135 22.3428 2.9471 21.7939 2.3568C21.5963 2.66912 21.179 2.83955 20.8302 2.73437L19.4548 2.3199C19.0906 2.20989 18.9357 1.84057 19.1108 1.49533L19.69 0.350005C19.8646 0.00420578 20.2641 -0.102778 20.5814 0.109387L21.7992 0.922765C22.0492 1.08969 22.1629 1.40106 22.1127 1.69232C22.7737 2.31459 23.8719 3.84138 23.5369 6.87249C23.9537 7.09945 24.1763 7.5969 24.0462 8.08212C23.9829 8.31344 22.8972 12.2217 20.5548 14.4818ZM4.63155 7.27083C3.8409 7.27083 3.1986 7.92648 3.1986 8.73635C3.1986 9.54565 3.8409 10.2018 4.63155 10.2018C5.42332 10.2018 6.06516 9.54565 6.06516 8.73635C6.06516 7.92639 5.42378 7.27083 4.63155 7.27083Z" fill="black"/>
</mask>
<g mask="url(#mask0_482_1532)">
<path d="M45.5149 -2.65552H12.4859L9.09955 6.21235L12.4859 19.5379H45.5149V-2.65552Z" fill="#1E1B1B"/>
</g>
</svg>
