<?xml version="1.0" encoding="utf-8"?>
<!-- Generator: Adobe Illustrator 23.0.5, SVG Export Plug-In . SVG Version: 6.00 Build 0)  -->
<svg version="1.1" id="Layer_1" xmlns="http://www.w3.org/2000/svg" xmlns:xlink="http://www.w3.org/1999/xlink" x="0px" y="0px"
	 viewBox="0 0 46 46" style="enable-background:new 0 0 46 46;" xml:space="preserve">
<style type="text/css">
	.st0{fill:#020000;}
</style>
<path class="st0" d="M23,7.7C14.5,7.7,7.7,14.5,7.7,23c0,8.5,6.9,15.3,15.3,15.3c8.5,0,15.3-6.9,15.3-15.3
	C38.3,14.5,31.5,7.7,23,7.7z M30.8,13.4c0.2-0.2,0.4-0.3,0.7-0.3c0.2,0,0.5,0.1,0.7,0.3c2,1.9,3.3,4.3,3.9,6.9
	c0.1,0.4-0.1,0.9-0.5,1.1c-0.9,0.5-2.1,0.7-3.1,0.7c-1.4,0-2.7-0.4-3.5-1.2C27.4,19.3,28.1,16.5,30.8,13.4z M15.2,32.8
	c-0.2,0.2-0.4,0.3-0.7,0.3c0,0,0,0,0,0c-0.2,0-0.5-0.1-0.7-0.3c-2-1.9-3.3-4.3-3.9-6.9c-0.1-0.4,0.1-0.9,0.5-1.1
	c2.2-1.1,5.2-0.9,6.6,0.4C18.6,26.9,17.9,29.7,15.2,32.8z M17,20.9c-0.8,0.8-2.1,1.2-3.5,1.2c-1.1,0-2.2-0.2-3.1-0.7
	c-0.4-0.2-0.6-0.6-0.5-1.1c0.6-2.7,1.9-5,3.9-6.9c0.2-0.2,0.5-0.3,0.7-0.3c0.3,0,0.5,0.1,0.7,0.3C17.9,16.5,18.6,19.3,17,20.9z
	 M27.1,35.8c-1.3,0.4-2.7,0.6-4.1,0.6c-1.4,0-2.8-0.2-4.1-0.6c-0.4-0.1-0.7-0.5-0.7-1c0.2-3.4,2.3-6,4.8-6c2.5,0,4.5,2.6,4.8,6
	C27.8,35.2,27.5,35.6,27.1,35.8z M19.2,23c0-2.1,1.7-3.8,3.8-3.8s3.8,1.7,3.8,3.8s-1.7,3.8-3.8,3.8S19.2,25.1,19.2,23z M27.8,11.3
	c-0.2,3.4-2.3,6-4.8,6c-2.5,0-4.5-2.6-4.8-6c0-0.4,0.2-0.8,0.7-1c2.7-0.8,5.5-0.8,8.2,0C27.5,10.4,27.8,10.8,27.8,11.3z M36.1,25.7
	c-0.6,2.7-1.9,5-3.9,6.9c-0.2,0.2-0.4,0.3-0.7,0.3c0,0,0,0,0,0c-0.3,0-0.5-0.1-0.7-0.3c-2.8-3.1-3.4-5.9-1.8-7.5
	c1.3-1.4,4.4-1.6,6.6-0.4C36,24.9,36.2,25.3,36.1,25.7z"/>
<path class="st0" d="M23,0C10.3,0,0,10.3,0,23s10.3,23,23,23s23-10.3,23-23S35.7,0,23,0z M23,40.3c-9.5,0-17.3-7.7-17.3-17.3
	S13.5,5.8,23,5.8S40.3,13.5,40.3,23S32.5,40.3,23,40.3z"/>
</svg>
